<?xml version="1.0" standalone="no"?>
<!DOCTYPE svg PUBLIC "-//W3C//DTD SVG 20010904//EN"
 "http://www.w3.org/TR/2001/REC-SVG-20010904/DTD/svg10.dtd">
<svg version="1.0" xmlns="http://www.w3.org/2000/svg"
 width="1023.000000pt" height="1023.000000pt" viewBox="0 0 1023.000000 1023.000000"
 preserveAspectRatio="xMidYMid meet">
<metadata>
Created by potrace 1.14, written by Peter Selinger 2001-2017
</metadata>
<g transform="translate(0.000000,1023.000000) scale(0.100000,-0.100000)"
fill="#000000" stroke="none">
<path d="M5970 9174 c-143 -38 -213 -98 -463 -399 -381 -456 -598 -788 -879
-1342 -37 -72 -62 -87 -141 -83 -112 6 -572 3 -767 -5 -347 -14 -772 -11 -856
7 -35 7 -45 16 -75 64 -96 156 -981 1479 -1001 1495 -69 60 -151 89 -256 89
-155 0 -230 -40 -332 -175 -25 -33 -47 -62 -51 -65 -13 -12 -162 -214 -220
-300 -253 -372 -455 -777 -604 -1215 -34 -97 -122 -393 -129 -430 -3 -16 -12
-59 -21 -94 -14 -57 -37 -179 -50 -267 -2 -16 -13 -83 -24 -149 -11 -66 -23
-147 -27 -180 -3 -33 -8 -67 -9 -75 -2 -8 -6 -46 -10 -85 -4 -38 -9 -78 -11
-88 -2 -10 -6 -55 -10 -100 -3 -45 -8 -93 -10 -107 -18 -136 -26 -671 -11
-801 30 -275 99 -468 297 -834 334 -619 644 -885 1358 -1166 181 -71 271 -99
304 -93 102 19 161 120 123 210 -28 69 -33 71 -280 165 -168 63 -215 84 -366
159 -391 195 -579 381 -831 820 -200 348 -277 565 -295 825 -11 152 -5 498 12
660 2 22 7 74 10 115 3 41 8 86 10 100 2 14 7 54 10 90 4 36 17 139 31 230 23
156 26 179 39 240 2 14 7 39 10 55 12 75 49 239 86 383 158 613 442 1190 839
1702 123 158 130 164 172 156 31 -6 65 -54 498 -708 256 -386 477 -722 491
-747 35 -61 108 -127 172 -156 49 -23 65 -27 147 -40 94 -15 535 -20 740 -9
52 3 303 7 558 9 483 4 491 4 582 51 89 45 114 77 229 297 184 353 366 652
524 862 61 80 276 346 288 355 3 3 38 42 76 87 94 109 161 173 182 173 9 0 39
-21 65 -47 76 -74 233 -406 431 -908 58 -148 140 -353 181 -455 117 -287 222
-642 268 -908 17 -97 42 -137 104 -164 108 -48 218 32 214 156 -5 104 -84 431
-172 706 -16 52 -30 98 -30 102 0 4 -11 31 -24 60 -13 29 -68 163 -121 298
-53 135 -100 254 -105 265 -5 11 -47 115 -94 230 -46 116 -100 245 -120 288
-20 42 -36 79 -36 82 0 18 -178 363 -207 401 -123 161 -285 242 -413 208z"/>
<path d="M7338 6095 c-2 -2 -31 -6 -66 -9 -63 -6 -164 -21 -212 -31 -14 -4
-35 -8 -46 -10 -122 -26 -343 -108 -479 -178 -288 -148 -524 -323 -948 -702
-526 -470 -728 -626 -1027 -793 -25 -13 -49 -28 -55 -32 -5 -4 -35 -21 -65
-37 -30 -16 -95 -52 -145 -80 -49 -27 -121 -67 -160 -88 -300 -162 -602 -351
-730 -456 -232 -191 -405 -384 -488 -545 -14 -28 -21 -32 -59 -32 -272 -4
-477 -186 -454 -404 9 -81 40 -142 103 -206 47 -47 157 -112 191 -112 6 0 12
-6 13 -12 1 -7 2 -26 3 -43 21 -273 140 -535 331 -729 196 -198 487 -354 780
-416 50 -11 106 -22 125 -25 19 -3 46 -7 60 -10 14 -2 50 -7 80 -10 30 -3 71
-8 90 -10 19 -3 69 -7 110 -10 41 -3 95 -8 120 -10 100 -8 229 -16 305 -20 44
-2 141 -7 215 -11 74 -3 164 -8 200 -9 108 -6 799 -6 890 -1 265 15 307 18
330 21 14 2 63 7 110 10 47 4 92 8 100 10 8 2 49 6 90 10 41 4 77 8 80 10 3 2
30 6 60 10 30 3 62 8 70 10 8 3 34 7 58 10 222 28 681 157 887 250 28 12 73
33 100 45 74 34 223 118 278 158 53 38 89 98 89 147 0 72 -68 144 -146 152
-48 6 -57 2 -196 -84 -232 -143 -592 -271 -950 -338 -14 -3 -36 -7 -50 -10
-14 -2 -41 -7 -60 -10 -19 -3 -60 -10 -90 -15 -30 -5 -71 -12 -90 -14 -59 -7
-144 -17 -175 -21 -16 -2 -70 -6 -120 -10 -49 -4 -101 -9 -115 -10 -206 -25
-1059 -25 -1435 -1 -33 3 -112 7 -175 11 -63 4 -133 8 -155 10 -22 2 -80 6
-130 10 -123 8 -192 14 -243 20 -23 3 -63 8 -90 11 -26 3 -55 8 -64 10 -10 3
-30 7 -45 10 -64 11 -214 56 -283 84 -270 111 -487 312 -573 531 -34 84 -53
168 -56 241 -2 51 0 57 21 64 37 11 127 72 160 107 113 122 118 311 13 434
l-35 41 59 90 c79 118 233 270 395 391 72 54 136 100 141 102 6 2 48 29 95 60
99 64 224 136 550 316 306 170 292 161 401 229 121 75 383 258 425 299 6 5 29
24 50 40 92 71 373 314 424 365 8 8 51 47 95 85 44 39 82 73 85 76 3 3 55 48
115 100 472 405 865 602 1287 644 133 14 361 9 468 -10 14 -2 43 -7 65 -10
163 -23 420 -108 600 -199 441 -223 817 -577 1079 -1016 176 -297 285 -569
345 -865 30 -148 33 -174 36 -355 6 -352 -84 -624 -271 -814 -111 -114 -245
-192 -379 -222 -96 -22 -146 -26 -260 -21 -146 6 -156 8 -275 43 -293 89 -519
281 -659 562 -35 71 -84 203 -97 263 -32 151 -37 191 -39 344 -3 163 8 296 30
375 2 8 6 26 9 40 10 50 15 67 51 179 34 105 36 118 25 155 -21 73 -71 111
-150 115 -37 2 -53 -4 -87 -28 -23 -17 -48 -45 -57 -63 -38 -86 -96 -289 -111
-393 -4 -22 -8 -47 -10 -55 -18 -66 -24 -355 -11 -490 11 -113 44 -263 82
-379 217 -654 818 -1050 1489 -977 371 39 696 263 870 598 78 150 135 330 150
478 4 36 9 74 11 85 7 34 7 286 0 355 -29 276 -85 505 -188 765 -278 701 -805
1286 -1445 1604 -270 134 -525 210 -828 247 -52 6 -412 14 -417 9z"/>
<path d="M3363 5097 c-28 -12 -40 -66 -25 -115 44 -143 392 -489 480 -476 6 1
18 2 26 3 8 0 50 27 93 60 183 138 351 343 366 447 5 32 -17 83 -36 86 -59 7
-887 3 -904 -5z"/>
</g>
</svg>
